REM DIRINDEX 1\5,1\2\6,1\2\7,1\3\8,1\3\9,1\3\10,1\3\11,1\4\12,1\4\13,1\4\14
REM DIRNAME folder01,folder02,folder03,folder04,folder05,folder06,folder07,folder08,folder09,folder10,folder11,folder12,folder13,folder14
TITLE ""
FILE "5Q_j_578-585.mp3" MP3
  TRACK 01 AUDIO
    TITLE "8:cjc043_0319"
    INDEX 01 00:00:00
  TRACK 02 AUDIO
    TITLE "0:"
    INDEX 01 00:01:11
  TRACK 03 AUDIO
    TITLE "9:cjc043_0320"
    INDEX 01 00:01:62
  TRACK 04 AUDIO
    TITLE "0:"
    INDEX 01 00:05:36
  TRACK 05 AUDIO
    TITLE "10:cjc043_0321"
    INDEX 01 00:06:12
  TRACK 06 AUDIO
    TITLE "0:"
    INDEX 01 00:09:12
  TRACK 07 AUDIO
    TITLE "11:cjc043_0322"
    INDEX 01 00:09:67
  TRACK 08 AUDIO
    TITLE "0:"
    INDEX 01 00:12:42
  TRACK 09 AUDIO
    TITLE "8:cjc043_0323"
    INDEX 01 00:13:20
  TRACK 10 AUDIO
    TITLE "0:"
    INDEX 01 00:15:21
  TRACK 11 AUDIO
    TITLE "9:cjc043_0324"
    INDEX 01 00:15:74
  TRACK 12 AUDIO
    TITLE "0:"
    INDEX 01 00:17:65
  TRACK 13 AUDIO
    TITLE "10:cjc043_0325"
    INDEX 01 00:18:39
  TRACK 14 AUDIO
    TITLE "0:"
    INDEX 01 00:21:33
  TRACK 15 AUDIO
    TITLE "11:cjc043_0326"
    INDEX 01 00:22:11
  TRACK 16 AUDIO
    TITLE "0:"
    INDEX 01 00:24:29
  TRACK 17 AUDIO
    TITLE "8:cjc043_0327"
    INDEX 01 00:25:03
  TRACK 18 AUDIO
    TITLE "0:"
    INDEX 01 00:26:38
  TRACK 19 AUDIO
    TITLE "9:cjc043_0328"
    INDEX 01 00:27:20
  TRACK 20 AUDIO
    TITLE "0:"
    INDEX 01 00:29:03
  TRACK 21 AUDIO
    TITLE "10:cjc043_0329"
    INDEX 01 00:29:56
  TRACK 22 AUDIO
    TITLE "0:"
    INDEX 01 00:32:72
  TRACK 23 AUDIO
    TITLE "11:cjc043_0330"
    INDEX 01 00:33:56
  TRACK 24 AUDIO
    TITLE "0:"
    INDEX 01 00:36:15
  TRACK 25 AUDIO
    TITLE "8:cjc043_0331"
    INDEX 01 00:36:70
  TRACK 26 AUDIO
    TITLE "0:"
    INDEX 01 00:38:31
  TRACK 27 AUDIO
    TITLE "9:cjc043_0332"
    INDEX 01 00:39:05
  TRACK 28 AUDIO
    TITLE "0:"
    INDEX 01 00:40:38
  TRACK 29 AUDIO
    TITLE "10:cjc043_0333"
    INDEX 01 00:41:16
  TRACK 30 AUDIO
    TITLE "0:"
    INDEX 01 00:43:33
  TRACK 31 AUDIO
    TITLE "11:cjc043_0334"
    INDEX 01 00:44:20
  TRACK 32 AUDIO
    TITLE "0:"
    INDEX 01 00:46:27
  TRACK 33 AUDIO
    TITLE "8:cjc043_0335"
    INDEX 01 00:47:13
  TRACK 34 AUDIO
    TITLE "0:"
    INDEX 01 00:48:32
  TRACK 35 AUDIO
    TITLE "9:cjc043_0336"
    INDEX 01 00:49:08
  TRACK 36 AUDIO
    TITLE "0:"
    INDEX 01 00:51:38
  TRACK 37 AUDIO
    TITLE "10:cjc043_0337"
    INDEX 01 00:52:22
  TRACK 38 AUDIO
    TITLE "0:"
    INDEX 01 00:56:29
  TRACK 39 AUDIO
    TITLE "11:cjc043_0338"
    INDEX 01 00:57:11
  TRACK 40 AUDIO
    TITLE "0:"
    INDEX 01 01:00:00
  TRACK 41 AUDIO
    TITLE "8:cjc043_0339"
    INDEX 01 01:00:57
  TRACK 42 AUDIO
    TITLE "0:"
    INDEX 01 01:02:61
  TRACK 43 AUDIO
    TITLE "9:cjc043_0340"
    INDEX 01 01:03:43
  TRACK 44 AUDIO
    TITLE "0:"
    INDEX 01 01:06:06
  TRACK 45 AUDIO
    TITLE "10:cjc043_0341"
    INDEX 01 01:06:59
  TRACK 46 AUDIO
    TITLE "0:"
    INDEX 01 01:10:06
  TRACK 47 AUDIO
    TITLE "11:cjc043_0342"
    INDEX 01 01:10:61
  TRACK 48 AUDIO
    TITLE "0:"
    INDEX 01 01:13:69
  TRACK 49 AUDIO
    TITLE "8:cjc043_0343"
    INDEX 01 01:14:51
  TRACK 50 AUDIO
    TITLE "0:"
    INDEX 01 01:18:33
  TRACK 51 AUDIO
    TITLE "9:cjc043_0344"
    INDEX 01 01:19:15
  TRACK 52 AUDIO
    TITLE "0:"
    INDEX 01 01:21:18
  TRACK 53 AUDIO
    TITLE "10:cjc043_0345"
    INDEX 01 01:21:69
  TRACK 54 AUDIO
    TITLE "0:"
    INDEX 01 01:25:27
  TRACK 55 AUDIO
    TITLE "11:cjc043_0346"
    INDEX 01 01:26:07
  TRACK 56 AUDIO
    TITLE "0:"
    INDEX 01 01:29:33
  TRACK 57 AUDIO
    TITLE "8:cjc043_0347"
    INDEX 01 01:30:11
  TRACK 58 AUDIO
    TITLE "0:"
    INDEX 01 01:33:17
  TRACK 59 AUDIO
    TITLE "9:cjc043_0348"
    INDEX 01 01:33:74
  TRACK 60 AUDIO
    TITLE "0:"
    INDEX 01 01:38:42
  TRACK 61 AUDIO
    TITLE "10:cjc043_0349"
    INDEX 01 01:39:19
  TRACK 62 AUDIO
    TITLE "0:"
    INDEX 01 01:42:57
  TRACK 63 AUDIO
    TITLE "11:cjc043_0350"
    INDEX 01 01:43:35
  TRACK 64 AUDIO
    TITLE "0:"
    INDEX 01 01:47:29
